<svg width="102" height="29" viewBox="0 0 102 29" fill="none" xmlns="http://www.w3.org/2000/svg">
<path fill-rule="evenodd" clip-rule="evenodd" d="M54.2717 27.7255H68.2681C70.3594 27.7255 72.0757 26.8674 73.4698 25.1505C74.8104 23.4882 75.5077 21.5042 75.5077 19.2526C75.5077 14.6942 69.6627 11.4764 67.4094 11.4764H59.7412C59.1513 11.4764 58.6677 11.2082 58.2931 10.7797C57.9175 10.2966 57.7032 9.76068 57.7032 9.1168C57.7032 8.36607 57.9175 7.72273 58.2931 7.18626C58.7222 6.65033 59.2581 6.32866 59.902 6.32866H74.274V0.589905H59.6332C57.0054 0.589905 54.9669 1.39462 53.5188 2.94952C52.2327 4.39757 51.5883 6.32812 51.5883 8.63431C51.5883 10.8865 52.2327 12.871 53.5188 14.4788C54.9669 16.2485 56.6837 17.1612 58.7751 17.1612H67.6242C68.1596 17.1612 68.5892 17.322 68.9103 17.75C69.2859 18.1791 69.4468 18.7156 69.4468 19.306C69.4468 20.0033 69.1785 20.6467 68.7495 21.1831C68.267 21.6656 67.7305 21.9339 67.0343 21.9339H52.8766L52.6623 21.5582L47.3532 4.50497L47.0849 3.9685C45.7977 1.34065 43.6529 0.0539782 40.7034 0.0539782C39.0945 0.0539782 37.6465 0.429071 36.3593 1.23378C35.0186 2.03795 34.1605 3.21776 33.678 4.71978L26.5451 27.6715L33.0341 27.726L39.5765 7.29421C39.7373 6.65033 40.1129 6.32866 40.5954 6.32866C40.8637 6.32866 41.0779 6.43552 41.2388 6.5969C41.3996 6.81116 41.507 7.02597 41.5604 7.29421L48.1562 27.726H54.2717V27.7255ZM6.00645 8.95597V27.6715H0V6.91802C0 4.23674 0.643879 2.35962 2.03795 1.23378C3.11035 0.429071 4.71923 0 6.97145 0C8.79459 0 10.35 0.536477 11.7441 1.55545C13.1382 2.57443 14.0498 3.9685 14.5328 5.68478L18.4473 19.4668L19.0912 21.344C19.1446 21.7191 19.3594 21.9873 19.5737 22.201C19.8419 22.4164 20.1096 22.5238 20.4318 22.4164C20.9683 22.3629 21.2366 22.0407 21.2366 21.5582V0.643879H27.4038V21.29C27.4038 23.5962 26.8679 25.313 25.7415 26.5462C24.6691 27.7795 23.0602 28.4234 20.9149 28.4234C19.0378 28.4234 17.4823 28.0477 16.2491 27.4044C14.7476 26.6536 13.7821 25.4738 13.353 23.9178L8.84856 8.20523L8.5269 7.18626C8.41949 6.81116 8.20523 6.54292 7.93699 6.27469C7.66876 6.05988 7.34709 6.00645 7.02542 6.05988C6.70375 6.11385 6.48949 6.27469 6.27468 6.59636C6.09836 6.88729 6.00556 7.22116 6.00645 7.56135V8.95597ZM102 27.7255L95.0285 4.50497L94.7603 3.9685C93.4731 1.34065 91.3283 0.0539782 88.3788 0.0539782C86.7699 0.0539782 85.3218 0.429071 84.0352 1.23378C82.6934 2.03795 81.8364 3.21776 81.3528 4.71978L74.2205 27.6715L80.7095 27.726L87.2518 7.29421C87.4127 6.65033 87.7883 6.32866 88.2708 6.32866C88.5391 6.32866 88.7533 6.43552 88.9142 6.5969C89.0761 6.81116 89.1824 7.02597 89.2369 7.29421L95.8327 27.726H102V27.7255Z" fill="white"/>
</svg>
